<?xml version="1.0" encoding="UTF-8" standalone="no"?>
<!-- Created with Inkscape (http://www.inkscape.org/) -->

<svg
   xmlns:dc="http://purl.org/dc/elements/1.1/"
   xmlns:cc="http://creativecommons.org/ns#"
   xmlns:rdf="http://www.w3.org/1999/02/22-rdf-syntax-ns#"
   xmlns:svg="http://www.w3.org/2000/svg"
   xmlns="http://www.w3.org/2000/svg"
   xmlns:xlink="http://www.w3.org/1999/xlink"
   xmlns:sodipodi="http://sodipodi.sourceforge.net/DTD/sodipodi-0.dtd"
   xmlns:inkscape="http://www.inkscape.org/namespaces/inkscape"
   width="744.09448819"
   height="1052.3622047"
   id="svg2"
   version="1.1"
   inkscape:version="0.48.5 r10040"
   sodipodi:docname="logo.svg">
  <defs
     id="defs4">
    <linearGradient
       id="linearGradient3914">
      <stop
         style="stop-color:#ffffff;stop-opacity:1;"
         offset="0"
         id="stop3916" />
      <stop
         style="stop-color:#ffffff;stop-opacity:0;"
         offset="1"
         id="stop3918" />
    </linearGradient>
    <linearGradient
       inkscape:collect="always"
       xlink:href="#linearGradient3914"
       id="linearGradient3920"
       x1="372.72192"
       y1="664.4657"
       x2="356.85718"
       y2="151.60851"
       gradientUnits="userSpaceOnUse" />
    <linearGradient
       inkscape:collect="always"
       xlink:href="#linearGradient3914"
       id="linearGradient3928"
       x1="182.7541"
       y1="549.77637"
       x2="233.08139"
       y2="298.34781"
       gradientUnits="userSpaceOnUse" />
    <linearGradient
       inkscape:collect="always"
       xlink:href="#linearGradient3914"
       id="linearGradient3936"
       x1="542.98987"
       y1="592.74847"
       x2="511.44281"
       y2="301.31992"
       gradientUnits="userSpaceOnUse" />
    <linearGradient
       inkscape:collect="always"
       xlink:href="#linearGradient3914"
       id="linearGradient3944"
       x1="366.71426"
       y1="401.77435"
       x2="359.79486"
       y2="274.6315"
       gradientUnits="userSpaceOnUse" />
  </defs>
  <sodipodi:namedview
     id="base"
     pagecolor="#ffffff"
     bordercolor="#666666"
     borderopacity="1.0"
     inkscape:pageopacity="0.0"
     inkscape:pageshadow="2"
     inkscape:zoom="0.7"
     inkscape:cx="400.95387"
     inkscape:cy="218.81415"
     inkscape:document-units="px"
     inkscape:current-layer="layer1"
     showgrid="false"
     inkscape:window-width="956"
     inkscape:window-height="1176"
     inkscape:window-x="63"
     inkscape:window-y="0"
     inkscape:window-maximized="0" />
  <metadata
     id="metadata7">
    <rdf:RDF>
      <cc:Work
         rdf:about="">
        <dc:format>image/svg+xml</dc:format>
        <dc:type
           rdf:resource="http://purl.org/dc/dcmitype/StillImage" />
        <dc:title></dc:title>
      </cc:Work>
    </rdf:RDF>
  </metadata>
  <g
     inkscape:label="Layer 1"
     inkscape:groupmode="layer"
     id="layer1">
    <rect
       style="fill:#00fd00;fill-opacity:1;stroke:none"
       id="rect3965"
       width="612.85712"
       height="577.14288"
       x="68.571434"
       y="249.50508"
       ry="109.09647" />
    <path
       style="fill:#000000;fill-opacity:1;stroke:none;opacity:1"
       d="m 218.5759,1100.3125 c -27.88714,0 -55.78768,10.6939 -77.15625,32.0625 l -28.25,28.25 c 37.51134,19.8505 70.48668,52.2846 98.90625,97.3125 27.18565,-46.323 61.26813,-81.9647 102.25,-106.9375 l -18.625,-18.625 c -21.36857,-21.3686 -49.23786,-32.0625 -77.125,-32.0625 z m -111.6875,66.5937 -1.875,1.875 c -6.529304,29.2943 -9.812574,58.2442 -9.812504,86.8126 -8e-5,72.2613 15.963254,140.8279 47.906254,205.6875 l -62.000004,22.1875 60.312504,60.3125 c 42.73714,42.7371 111.54411,42.7371 154.28125,0 l 57,-57 c -33.85696,-12.4902 -52.02579,-19.8693 -54.15625,-22 21.81437,-46.3561 32.71844,-93.9002 32.71875,-142.5938 l 0,-4.6562 c -3.1e-4,-25.5152 -5.84513,-52.0054 -17.53125,-79.4688 -16.55606,7.0121 -42.63789,28.4431 -78.28125,64.2813 l 0,1.1562 c 20.25624,48.4989 30.37475,76.9374 30.375,85.3125 l -75.96875,94.6563 -1.15625,0 c 4.6744,-22.7885 6.99982,-48.4932 7,-77.125 l 0,-9.3438 c -1.8e-4,-13.634 -1.16289,-27.6491 -3.5,-42.0625 -6.81725,7.2068 -17.34417,22.7617 -31.5625,46.7188 l -1.15625,0 0,-1.1563 c -1.4e-4,-12.4654 8.1701,-41.6894 24.53125,-87.6562 -16.76047,-57.4087 -42.45366,-106.0584 -77.125,-145.9376 z m 230.8125,7.4688 14.59375,43.8125 -26.875,12.8437 0,2.3438 c 35.05895,50.8362 52.59339,103.4395 52.59375,157.7813 l 0,16.3437 c -2.12972,26.9385 -4.60951,47.3898 -7.4375,61.4063 l 53.6875,-53.6875 c 42.73714,-42.7371 42.73714,-111.5441 0,-154.2813 l -86.5625,-86.5625 z m -245.531254,7.25 -79.3125,79.3125 c -42.73714,42.7372 -42.73714,111.5442 0,154.2813 l 44.9375,44.9375 c -4.66123,-22.9033 -7.00002,-44.7331 -7,-65.5 l 0,-24.5313 c -3e-5,-56.7784 13.8005,-119.6222 41.375,-188.5 z"
       id="rect2985"
       inkscape:connector-curvature="0" />
    <path
       style="fill:url(#linearGradient3944);fill-opacity:1;stroke:none;opacity:1"
       d="m 344.27891,393.94695 c -14.89578,-20.87457 -51.41308,-55.99326 -67.79992,-65.20317 -6.1563,-3.46003 -11.19328,-7.129 -11.19328,-8.15325 0,-4.80142 40.26178,-39.97902 53.34526,-46.60892 28.63001,-14.50793 64.99219,-14.79028 93.3346,-0.72475 8.11179,4.02565 22.19185,13.91467 31.28901,21.9756 l 16.54029,14.65622 -17.85744,12.99391 c -24.16249,17.58175 -53.53404,47.8428 -68.43572,70.50826 -6.7568,10.27709 -13.18526,18.68562 -14.28546,18.68562 -1.10021,0 -7.82201,-8.15829 -14.93734,-18.12952 z"
       id="path3760"
       inkscape:connector-curvature="0"
       inkscape:export-filename="/home/stefano/python/MaTiSSe/logo/logo.png"
       inkscape:export-xdpi="150"
       inkscape:export-ydpi="150" />
    <path
       style="fill:url(#linearGradient3920);fill-opacity:1;stroke:none;opacity:1"
       d="m 355.78123,734.87585 c -20.04326,-1.79337 -39.30704,-9.39024 -56.22909,-22.17452 -7.86183,-5.93946 -70.89003,-68.59833 -69.6699,-69.26165 0.49691,-0.27014 14.24276,-5.23825 30.54633,-11.04023 16.30357,-5.80199 29.77208,-10.6542 29.93001,-10.7827 0.15794,-0.1285 -1.9001,-4.97942 -4.57342,-10.77982 -33.73031,-73.18596 -48.13269,-153.0281 -41.3654,-229.31627 2.20062,-24.80779 7.90525,-56.03592 9.80646,-53.68229 0.13751,0.17024 3.13072,3.84524 6.65158,8.16667 15.72119,19.29587 30.6808,42.63236 42.58336,66.42857 8.13829,16.27052 18.70568,42.84755 24.51129,61.64604 l 2.71431,8.78891 -6.52446,19.42538 c -10.69036,31.8286 -15.09842,47.34571 -16.98285,59.78253 -1.99906,13.19336 -1.08346,13.21726 6.84021,0.17857 12.12253,-19.94806 24.13085,-36.70601 25.06128,-34.9737 1.11834,2.08218 2.91957,22.15159 3.28312,36.58084 0.73354,29.11344 -2.10949,66.73721 -6.6254,87.67857 -0.31937,1.48095 -0.15086,1.96429 0.68481,1.96429 1.47984,0 76.86224,-93.99131 76.86224,-95.83647 0,-5.99047 -9.49087,-33.26899 -23.63141,-67.92108 -3.50272,-8.58359 -6.36859,-16.04246 -6.36859,-16.57527 0,-0.91743 22.0335,-22.48319 33.57143,-32.85877 8.08924,-7.2743 22.99657,-19.11006 29.62325,-23.51955 6.3949,-4.25525 13.68569,-8.07516 14.27937,-7.48147 0.20412,0.20411 1.83245,4.20416 3.6185,8.889 6.12464,16.06492 10.54378,33.63917 12.55932,49.94647 1.10324,8.92608 1.07304,37.51796 -0.0532,50.35714 -3.26671,37.24104 -12.31793,72.33974 -27.58944,106.98586 -2.12648,4.82437 -3.86635,9.03751 -3.86635,9.36255 0,0.99048 11.53063,5.94915 32.70202,14.06328 11.08532,4.24856 20.15512,7.91729 20.15512,8.15274 0,0.23544 -14.54464,14.8946 -32.32142,32.5759 -27.8941,27.74426 -33.29985,32.79346 -39.46429,36.86133 -16.61167,10.9619 -32.84474,16.7308 -51.78571,18.40355 -9.0376,0.79814 -9.64052,0.79704 -18.93306,-0.0344 l 0,3e-5 z"
       id="path3764"
       inkscape:connector-curvature="0"
       inkscape:export-filename="/home/stefano/python/MaTiSSe/logo/logo.png"
       inkscape:export-xdpi="150"
       inkscape:export-ydpi="150" />
    <path
       style="fill:url(#linearGradient3936);fill-opacity:1;stroke:none;opacity:1"
       d="m 518.54872,626.00504 c 1.28885,-4.8817 3.95592,-25.60019 5.7928,-45 1.23975,-13.09336 1.40798,-36.72651 0.35083,-49.28571 -3.84007,-45.621 -18.32895,-86.44118 -46.2265,-130.23596 -3.33595,-5.23692 -5.78583,-9.75861 -5.44418,-10.0482 0.34165,-0.28958 6.36267,-3.23697 13.38004,-6.54975 7.01737,-3.31278 12.88626,-6.34467 13.04199,-6.73752 0.15572,-0.39286 -2.76814,-9.85333 -6.49748,-21.02328 -3.72935,-11.16994 -6.68447,-20.40514 -6.56694,-20.52267 0.11753,-0.11753 20.30688,19.95009 44.86521,44.5947 49.44065,49.61433 52.53384,53.14489 60.38829,68.92699 14.83242,29.80307 14.99303,65.88344 0.42363,95.16711 -7.48937,15.05322 -10.22806,18.30937 -43.25559,51.42858 -16.84609,16.89285 -30.45954,30.07142 -30.2521,29.28571 z"
       id="path3766"
       inkscape:connector-curvature="0"
       inkscape:export-filename="/home/stefano/python/MaTiSSe/logo/logo.png"
       inkscape:export-xdpi="150"
       inkscape:export-ydpi="150" />
    <path
       style="fill:url(#linearGradient3928);fill-opacity:1;stroke:none;opacity:1"
       d="m 177.84844,592.10195 c -27.4669,-27.66657 -31.31975,-32.32846 -38.12928,-46.13585 -17.76835,-36.0281 -14.32448,-77.85373 9.15404,-111.17535 2.80052,-3.97459 16.8473,-18.59438 46.13887,-48.02101 23.16192,-23.2687 42.21827,-42.20103 42.34744,-42.07185 0.12919,0.12918 -1.40412,4.54221 -3.40735,9.80673 -15.29719,40.20131 -26.67787,82.58526 -32.08941,119.50749 -2.67441,18.2471 -3.65589,32.54377 -4.07445,59.35007 -0.52636,33.71065 0.68397,52.6588 4.85241,75.9664 0.79767,4.4601 1.32728,8.23227 1.17693,8.38263 -0.15035,0.15036 -11.8365,-11.37381 -25.9692,-25.60926 l 0,0 z"
       id="path3768"
       inkscape:connector-curvature="0"
       inkscape:export-filename="/home/stefano/python/MaTiSSe/logo/logo.png"
       inkscape:export-xdpi="150"
       inkscape:export-ydpi="150" />
  </g>
</svg>
